<svg width="24" height="32" viewBox="0 0 24 32" fill="none" xmlns="http://www.w3.org/2000/svg">
<g clip-path="url(#clip0_32_30)">
<path d="M13.4125 2.5875C12.6313 1.80625 11.3625 1.80625 10.5813 2.5875L0.581299 12.5875C-0.199951 13.3688 -0.199951 14.6375 0.581299 15.4187C1.36255 16.2 2.6313 16.2 3.41255 15.4187L10 8.825V28C10 29.1063 10.8938 30 12 30C13.1063 30 14 29.1063 14 28V8.825L20.5875 15.4125C21.3688 16.1938 22.6376 16.1938 23.4188 15.4125C24.2001 14.6313 24.2001 13.3625 23.4188 12.5812L13.4188 2.58125L13.4125 2.5875Z" fill="white"/>
</g>
<defs>
<clipPath id="clip0_32_30">
<rect width="24" height="32" fill="white"/>
</clipPath>
</defs>
</svg>
