<svg width="70" height="70" viewBox="0 0 105 102" fill="none" xmlns="http://www.w3.org/2000/svg">
<path d="M104 51C104 78.5871 80.9702 101 52.5 101C24.0298 101 1 78.5871 1 51C1 23.4129 24.0298 1 52.5 1C80.9702 1 104 23.4129 104 51Z" stroke="#2C60E8" stroke-width="2"/>
<path d="M21 23.875L26.6349 71.8039L52 78.125L77.3651 71.8039L83 23.875H21ZM71.5526 33.5625L70.7776 39.2902L52.1615 45.2602L52.113 45.2723H70.1156L68.049 63.0246L52.1937 66.5L36.2417 62.9641L35.2083 54.0152H43.1036L43.6203 58.6531L52.113 60.2637L60.9448 58.3988L61.5422 50.9395L34.6917 50.8789V50.8668L34.6594 50.8789L34.0781 45.2723L52.1776 39.6172L53.2271 39.2902H33.3839L32.4474 33.5625H71.5526Z" fill="#2C60E8"/>
</svg>
