<svg width="70" height="70" viewBox="0 0 105 102" fill="none" xmlns="http://www.w3.org/2000/svg">
<path d="M104 51C104 78.5871 80.9702 101 52.5 101C24.0298 101 1 78.5871 1 51C1 23.4129 24.0298 1 52.5 1C80.9702 1 104 23.4129 104 51Z" fill="#051324" stroke="white" stroke-width="2"/>
<path d="M41.65 68.5C39.5167 68.5 37.6167 68 35.95 67C34.3167 65.9667 33.0333 64.55 32.1 62.75C31.2 60.95 30.75 58.8667 30.75 56.5C30.75 54.1 31.2167 52 32.15 50.2C33.1167 48.4 34.45 47 36.15 46C37.8833 45 39.8833 44.5 42.15 44.5C44.4167 44.5 46.35 44.9833 47.95 45.95C49.5833 46.8833 50.8333 48.2333 51.7 50C52.5667 51.7667 53 53.8667 53 56.3C53 56.5333 52.9833 56.7833 52.95 57.05C52.95 57.2833 52.95 57.4333 52.95 57.5H33.3V54.1H49.8L48.2 56.4C48.3 56.2333 48.4 55.9833 48.5 55.65C48.6 55.2833 48.65 54.9833 48.65 54.75C48.65 53.3833 48.3667 52.2 47.8 51.2C47.2667 50.2 46.5167 49.4167 45.55 48.85C44.5833 48.2833 43.45 48 42.15 48C40.6167 48 39.3 48.3333 38.2 49C37.1333 49.6333 36.3 50.5667 35.7 51.8C35.1333 53 34.8333 54.4833 34.8 56.25C34.8 58.05 35.0833 59.5833 35.65 60.85C36.2167 62.1167 37.05 63.0833 38.15 63.75C39.25 64.4167 40.5833 64.75 42.15 64.75C43.7167 64.75 45.1 64.4167 46.3 63.75C47.5 63.05 48.5167 62 49.35 60.6L52.6 62.65C51.4 64.5833 49.8833 66.05 48.05 67.05C46.25 68.0167 44.1167 68.5 41.65 68.5ZM70 45H74.5L66.65 56.15L75 68H70.5L64.5 59.3L58.5 68H54L62.35 56.15L54.5 45H59L64.5 53L70 45Z" fill="white"/>
</svg>
