<svg width="70" height="70" viewBox="0 0 105 102" fill="none" xmlns="http://www.w3.org/2000/svg">
<path d="M104 51C104 78.5871 80.9702 101 52.5 101C24.0298 101 1 78.5871 1 51C1 23.4129 24.0298 1 52.5 1C80.9702 1 104 23.4129 104 51Z" stroke="#EA4C1D" stroke-width="2"/>
<g clip-path="url(#clip0_34_120)">
<path d="M36.5032 82C45.0575 82 52.0001 77.3706 52.0001 71.6666V61.3333H36.5032C27.949 61.3333 21.0063 65.9626 21.0063 71.6666C21.0063 77.3706 27.949 82 36.5032 82Z" fill="#0ACF83"/>
<path d="M21.0063 51C21.0063 45.296 27.949 40.6667 36.5032 40.6667H52.0001V61.3334H36.5032C27.949 61.3334 21.0063 56.704 21.0063 51Z" fill="#A259FF"/>
<path d="M21.0063 30.3334C21.0063 24.6294 27.949 20.0001 36.5032 20.0001H52.0001V40.6667H36.5032C27.949 40.6667 21.0063 36.0374 21.0063 30.3334Z" fill="#F24E1E"/>
<path d="M52 20.0001H67.4969C76.0512 20.0001 82.9938 24.6294 82.9938 30.3334C82.9938 36.0374 76.0512 40.6667 67.4969 40.6667H52V20.0001Z" fill="#FF7262"/>
<path d="M82.9938 51C82.9938 56.704 76.0512 61.3334 67.4969 61.3334C58.9426 61.3334 52 56.704 52 51C52 45.296 58.9426 40.6667 67.4969 40.6667C76.0512 40.6667 82.9938 45.296 82.9938 51Z" fill="#1ABCFE"/>
</g>
<defs>
<clipPath id="clip0_34_120">
<rect width="62" height="62" fill="white" transform="translate(21 20)"/>
</clipPath>
</defs>
</svg>
