<svg width="70" height="70" viewBox="0 0 105 102" fill="none" xmlns="http://www.w3.org/2000/svg">
<path d="M104 51C104 78.5871 80.9702 101 52.5 101C24.0298 101 1 78.5871 1 51C1 23.4129 24.0298 1 52.5 1C80.9702 1 104 23.4129 104 51Z" stroke="#E84E31" stroke-width="2"/>
<g clip-path="url(#clip0_33_91)">
<path d="M81.8375 48.5902L54.7678 24.9043C54.0182 24.2506 53.003 23.8835 51.9446 23.8835C50.8863 23.8835 49.8711 24.2506 49.1214 24.9043L43.4888 29.8207L50.6161 36.057C54.3665 34.9551 57.9094 38.0914 56.6223 41.3488L63.5004 47.3672C68.2335 45.9383 71.9701 51.1211 68.4134 54.2332C64.746 57.4422 58.6982 53.882 60.6634 49.7164L54.2419 44.0976V58.859C57.7433 60.3726 57.3281 63.9328 55.5013 65.5191C55.0603 65.9065 54.5362 66.2139 53.9591 66.4236C53.382 66.6333 52.7633 66.7413 52.1384 66.7413C51.5135 66.7413 50.8947 66.6333 50.3176 66.4236C49.7405 66.2139 49.2164 65.9065 48.7754 65.5191C46.3397 63.3879 47.2393 59.8398 50.3393 58.7379V43.8433C47.4607 42.814 46.9348 40.1258 47.7652 38.3941L40.7348 32.2305L22.1763 48.4691C21.4292 49.1251 21.0098 50.0134 21.0098 50.9394C21.0098 51.8655 21.4292 52.7538 22.1763 53.4097L49.246 77.0957C49.9956 77.7494 51.0108 78.1164 52.0692 78.1164C53.1275 78.1164 54.1427 77.7494 54.8924 77.0957L81.8375 53.5187C82.5846 52.8628 83.004 51.9745 83.004 51.0484C83.004 50.1224 82.5846 49.2341 81.8375 48.5781V48.5902Z" fill="#E84E31"/>
</g>
<defs>
<clipPath id="clip0_33_91">
<rect width="62" height="62" fill="white" transform="translate(21 20)"/>
</clipPath>
</defs>
</svg>
