<svg width="70" height="70" viewBox="0 0 105 102" fill="none" xmlns="http://www.w3.org/2000/svg">
<path d="M104 51C104 78.5871 80.9702 101 52.5 101C24.0298 101 1 78.5871 1 51C1 23.4129 24.0298 1 52.5 1C80.9702 1 104 23.4129 104 51Z" fill="#FAFCFF" stroke="black" stroke-width="2"/>
<path d="M41.7375 68.1227C41.7375 68.3648 41.45 68.5586 41.0875 68.5586C40.675 68.5949 40.3875 68.4012 40.3875 68.1227C40.3875 67.8805 40.675 67.6867 41.0375 67.6867C41.4125 67.6504 41.7375 67.8441 41.7375 68.1227ZM37.85 67.5777C37.7625 67.8199 38.0125 68.0984 38.3875 68.1711C38.7125 68.2922 39.0875 68.1711 39.1625 67.9289C39.2375 67.6867 39 67.4082 38.625 67.2992C38.3 67.2145 37.9375 67.3355 37.85 67.5777ZM43.375 67.3719C43.0125 67.4566 42.7625 67.6867 42.8 67.9652C42.8375 68.2074 43.1625 68.3648 43.5375 68.2801C43.9 68.1953 44.15 67.9652 44.1125 67.723C44.075 67.493 43.7375 67.3355 43.375 67.3719ZM51.6 20.9688C34.2625 20.9688 21 33.7199 21 50.5156C21 63.9449 29.725 75.4367 42.1875 79.4813C43.7875 79.7598 44.35 78.8031 44.35 78.016C44.35 77.2652 44.3125 73.1238 44.3125 70.5809C44.3125 70.5809 35.5625 72.3973 33.725 66.9723C33.725 66.9723 32.3 63.4484 30.25 62.5402C30.25 62.5402 27.3875 60.6391 30.45 60.6754C30.45 60.6754 33.5625 60.9176 35.275 63.7996C38.0125 68.4738 42.6 67.1297 44.3875 66.3305C44.675 64.393 45.4875 63.0488 46.3875 62.2496C39.4 61.4988 32.35 60.518 32.35 48.8687C32.35 45.5387 33.3 43.8676 35.3 41.7363C34.975 40.9492 33.9125 37.7039 35.625 33.5141C38.2375 32.727 44.25 36.7836 44.25 36.7836C46.75 36.1055 49.4375 35.7543 52.1 35.7543C54.7625 35.7543 57.45 36.1055 59.95 36.7836C59.95 36.7836 65.9625 32.7148 68.575 33.5141C70.2875 37.716 69.225 40.9492 68.9 41.7363C70.9 43.8797 72.125 45.5508 72.125 48.8687C72.125 60.5543 64.7625 61.4867 57.775 62.2496C58.925 63.2062 59.9 65.0227 59.9 67.8684C59.9 71.9492 59.8625 76.9988 59.8625 77.9918C59.8625 78.7789 60.4375 79.7355 62.025 79.457C74.525 75.4367 83 63.9449 83 50.5156C83 33.7199 68.9375 20.9688 51.6 20.9688ZM33.15 62.734C32.9875 62.8551 33.025 63.1336 33.2375 63.3637C33.4375 63.5574 33.725 63.6422 33.8875 63.4848C34.05 63.3637 34.0125 63.0852 33.8 62.8551C33.6 62.6613 33.3125 62.5766 33.15 62.734ZM31.8 61.7531C31.7125 61.9105 31.8375 62.1043 32.0875 62.2254C32.2875 62.3465 32.5375 62.3102 32.625 62.1406C32.7125 61.9832 32.5875 61.7895 32.3375 61.6684C32.0875 61.5957 31.8875 61.632 31.8 61.7531ZM35.85 66.0641C35.65 66.2215 35.725 66.5848 36.0125 66.8148C36.3 67.0934 36.6625 67.1297 36.825 66.9359C36.9875 66.7785 36.9125 66.4152 36.6625 66.1852C36.3875 65.9066 36.0125 65.8703 35.85 66.0641ZM34.425 64.284C34.225 64.4051 34.225 64.7199 34.425 64.9984C34.625 65.277 34.9625 65.398 35.125 65.277C35.325 65.1195 35.325 64.8047 35.125 64.5262C34.95 64.2477 34.625 64.1266 34.425 64.284Z" fill="black"/>
</svg>
