<svg width="70" height="70" viewBox="0 0 105 102" fill="none" xmlns="http://www.w3.org/2000/svg">
<path d="M104 51C104 78.5871 80.9702 101 52.5 101C24.0298 101 1 78.5871 1 51C1 23.4129 24.0298 1 52.5 1C80.9702 1 104 23.4129 104 51Z" stroke="#E44D26" stroke-width="2"/>
<path d="M21 23.875L26.6349 71.8039L51.9193 78.125L77.3651 71.8039L83 23.875H21ZM70.7615 39.3629H41.0854L41.7474 45.3449H70.0995L67.9036 63.3152L52.0969 66.5848V66.6211H51.9193L35.9833 63.3152L35.0146 54.1363H42.7161L43.2812 58.75L51.9193 60.5059L60.5896 58.75L61.5583 51.218H34.6109L32.5443 33.5867H71.4719L70.7615 39.3629Z" fill="#E44D26"/>
</svg>
