<svg width="70" height="70" viewBox="0 0 105 102" fill="none" xmlns="http://www.w3.org/2000/svg">
<path d="M104 51C104 78.5871 80.9702 101 52.5 101C24.0298 101 1 78.5871 1 51C1 23.4129 24.0298 1 52.5 1C80.9702 1 104 23.4129 104 51Z" fill="#051324" stroke="#F4E11E" stroke-width="2"/>
<g clip-path="url(#clip0_33_45)">
<path d="M21 20V82H83V20H21ZM54.7402 68.3545C54.7402 74.3884 51.1973 77.1424 46.0353 77.1424C41.3714 77.1424 38.6728 74.7344 37.2888 71.8143L42.0357 68.9496C42.9491 70.5687 43.7795 71.9388 45.7862 71.9388C47.696 71.9388 48.9138 71.1915 48.9138 68.2714V48.4674H54.7402V68.3545ZM68.5241 77.1424C63.1129 77.1424 59.6116 74.5683 57.9094 71.1915L62.6562 68.4513C63.9018 70.4857 65.5348 71.9942 68.3996 71.9942C70.8076 71.9942 72.3576 70.7902 72.3576 69.1156C72.3576 67.1228 70.7799 66.417 68.1089 65.2406L66.6558 64.6179C62.4487 62.8326 59.667 60.5768 59.667 55.8299C59.667 51.4567 63.0022 48.1353 68.192 48.1353C71.9009 48.1353 74.558 49.4223 76.4679 52.7991L71.9286 55.7054C70.9321 53.9201 69.8527 53.2143 68.1781 53.2143C66.4759 53.2143 65.3964 54.2937 65.3964 55.7054C65.3964 57.4491 66.4759 58.1549 68.9808 59.2482L70.4339 59.871C75.3884 61.9884 78.1701 64.1612 78.1701 69.0326C78.1701 74.2638 74.046 77.1424 68.5241 77.1424Z" fill="#F4E11E"/>
</g>
<defs>
<clipPath id="clip0_33_45">
<rect x="21" y="20" width="62" height="62" rx="3" fill="white"/>
</clipPath>
</defs>
</svg>
