<svg width="70" height="70" viewBox="0 0 105 110" fill="none" xmlns="http://www.w3.org/2000/svg">
<path d="M104 51C104 78.5871 80.9702 101 52.5 101C24.0298 101 1 78.5871 1 51C1 23.4129 24.0298 1 52.5 1C80.9702 1 104 23.4129 104 51Z" stroke="#4E9842" stroke-width="2"/>
<path d="M55.5259 88C55.2569 88 54.9878 87.8974 54.7444 87.7265L52.2844 85.778C51.9128 85.5045 52.0922 85.4019 52.2203 85.3507C52.7072 85.1285 52.8097 85.0772 53.335 84.667C53.3862 84.6328 53.4631 84.6499 53.5144 84.6841L55.4106 86.1882C55.4747 86.2395 55.5772 86.2395 55.6413 86.1882L63.0469 80.4793C63.1109 80.428 63.1622 80.3255 63.1622 80.2058V68.8052C63.1622 68.6855 63.1237 68.583 63.0469 68.5317L55.6413 62.8399C55.5772 62.7886 55.4875 62.7886 55.4106 62.8399L48.005 68.5317C47.9281 68.583 47.8897 68.7026 47.8897 68.8052V80.2058C47.8897 80.3084 47.9409 80.4109 48.005 80.4622L50.0294 82.0176C51.1312 82.7526 51.8103 81.8809 51.8103 81.0263V69.7623C51.8103 69.6085 51.9 69.4718 52.0281 69.4718H52.9634C53.0787 69.4718 53.1812 69.5914 53.1812 69.7623V81.0263C53.1812 82.9919 52.3869 84.1029 50.9903 84.1029C50.5675 84.1029 50.2216 84.1029 49.2863 83.4876L47.3387 82.0005C46.8647 81.6245 46.5572 80.9408 46.5572 80.2058V68.8052C46.5572 68.0702 46.8519 67.3694 47.3387 67.0105L54.7444 61.3016C55.2184 60.9426 55.8334 60.9426 56.2947 61.3016L63.7003 67.0105C64.1744 67.3865 64.4819 68.0702 64.4819 68.8052V80.2058C64.4819 80.9408 64.1872 81.6416 63.7003 82.0005L56.2947 87.7094C56.0769 87.8974 55.8078 88 55.5259 88ZM61.5094 76.7532C61.5094 74.6166 60.4331 74.0525 58.1525 73.6423C55.8462 73.2321 55.6156 73.027 55.6156 72.3091C55.6156 71.7109 55.8078 70.9246 57.5119 70.9246C59.0366 70.9246 59.6003 71.369 59.8309 72.7364C59.8566 72.8732 59.9334 72.9586 60.0359 72.9586H60.9969C61.0609 72.9586 61.1122 72.9244 61.1506 72.8732C61.1891 72.8048 61.2147 72.7364 61.2019 72.651C61.0481 70.2922 59.8822 69.1983 57.5119 69.1983C55.3978 69.1983 54.1422 70.3948 54.1422 72.3775C54.1422 74.5482 55.3978 75.1294 57.4222 75.4029C59.8438 75.7276 60.0359 76.1891 60.0359 76.8215C60.0359 77.9325 59.3697 78.394 57.8066 78.394C55.8462 78.394 55.4106 77.7445 55.2697 76.4455C55.2569 76.3088 55.1672 76.2062 55.0519 76.2062H54.0909C53.9756 76.2062 53.8731 76.3258 53.8731 76.4968C53.8731 78.1547 54.5522 80.1375 57.7938 80.1375C60.1641 80.1375 61.5094 78.9068 61.5094 76.7532ZM68.4922 68.1898C68.4922 69.2325 67.8516 70.0871 67.07 70.0871C66.2884 70.0871 65.6478 69.2325 65.6478 68.1898C65.6478 67.113 66.3141 66.2926 67.07 66.2926C67.8387 66.2755 68.4922 67.113 68.4922 68.1898ZM68.2616 68.1898C68.2616 67.301 67.7234 66.6002 67.0572 66.6002C66.4037 66.6002 65.8656 67.301 65.8656 68.1898C65.8656 69.0786 66.4037 69.7965 67.0572 69.7965C67.7234 69.7794 68.2616 69.0615 68.2616 68.1898ZM67.685 69.2496H67.3519C67.3391 69.147 67.2878 68.6 67.2878 68.583C67.2622 68.4633 67.2366 68.3949 67.1212 68.3949H66.8394V69.2496H66.5319V67.113H67.0828C67.275 67.113 67.6466 67.113 67.6466 67.6771C67.6466 68.0702 67.4544 68.1556 67.3391 68.2069C67.5569 68.224 67.5697 68.412 67.6081 68.6855C67.6209 68.8564 67.6466 69.147 67.685 69.2496ZM67.3262 67.7454C67.3262 67.4549 67.1725 67.4548 67.0956 67.4548H66.8394V68.0531H67.0828C67.2878 68.0531 67.3262 67.8651 67.3262 67.7454ZM32.5916 43.3887C32.5916 42.9272 32.4122 42.5169 32.1175 42.2947L24.2634 36.2611C24.1353 36.1585 23.9816 36.1073 23.8278 36.0902H23.7509C23.5972 36.0902 23.4563 36.1585 23.3153 36.2611L15.4741 42.2947C15.1794 42.5169 15 42.9443 15 43.3887L15.0128 59.6265C15.0128 59.8487 15.1025 60.0538 15.2434 60.1735C15.3844 60.2931 15.5637 60.2931 15.7175 60.1735L20.3812 56.6011C20.6759 56.3618 20.8553 55.9516 20.8553 55.5072V47.9182C20.8553 47.4738 21.0347 47.0464 21.3294 46.8242L23.3153 45.303C23.4691 45.1834 23.6228 45.1321 23.7894 45.1321C23.9559 45.1321 24.1225 45.1834 24.2634 45.303L26.2494 46.8242C26.5441 47.0464 26.7234 47.4738 26.7234 47.9182V55.5072C26.7234 55.9516 26.9028 56.3789 27.1975 56.6011L31.8612 60.1735C32.0022 60.2931 32.1944 60.2931 32.3353 60.1735C32.4762 60.0709 32.5659 59.8487 32.5659 59.6265L32.5916 43.3887ZM75.5391 25.6638V55.8149C75.5391 56.2593 75.3597 56.6866 75.065 56.9088L67.2109 62.9595C66.9162 63.1817 66.5575 63.1817 66.2628 62.9595L58.4087 56.9088C58.1141 56.6866 57.9347 56.2593 57.9347 55.8149V43.7134C57.9347 43.269 58.1141 42.8417 58.4087 42.6195L66.2628 36.5688C66.5575 36.3466 66.9162 36.3466 67.2109 36.5688L69.1712 38.0729C69.3891 38.2438 69.6709 38.0216 69.6709 37.6969V21.6299C69.6709 21.1513 70.0553 20.8437 70.3756 21.083L75.0522 24.5698C75.3469 24.775 75.5391 25.2023 75.5391 25.6638ZM69.6453 47.696C69.6453 47.5763 69.5941 47.4738 69.53 47.4225L66.8394 45.3372C66.7625 45.2859 66.6728 45.2859 66.5959 45.3372L63.9053 47.4225C63.8284 47.4738 63.79 47.5763 63.79 47.696V51.8494C63.79 51.9691 63.8413 52.0716 63.9053 52.1229L66.5959 54.1911C66.6728 54.2424 66.7625 54.2424 66.8266 54.1911L69.5172 52.1229C69.5941 52.0716 69.6325 51.9691 69.6325 51.8494V47.696H69.6453ZM96.5259 47.5763C96.8206 47.3541 97 46.9268 97 46.4824V43.5596C97 43.1152 96.8206 42.6879 96.5259 42.4657L88.7231 36.4149C88.4284 36.1927 88.0697 36.1927 87.775 36.4149L79.9209 42.4657C79.6263 42.6879 79.4469 43.1152 79.4469 43.5596V55.661C79.4469 56.1225 79.6263 56.5328 79.9209 56.755L87.7237 62.6861C88.0056 62.9083 88.3644 62.9083 88.6591 62.6861L93.3741 59.1821C93.6944 58.9428 93.6944 58.3275 93.3741 58.0882L85.4688 52.0374C85.315 51.9178 85.2253 51.7127 85.2253 51.4905V47.696C85.2253 47.4738 85.315 47.2686 85.4688 47.149L87.9287 45.2517C88.0697 45.1321 88.2619 45.1321 88.4028 45.2517L90.8628 47.149C91.0037 47.2686 91.1062 47.4738 91.1062 47.696V50.67C91.1062 51.1486 91.5034 51.4563 91.8237 51.217L96.5259 47.5763ZM86.6219 48.1745C86.5706 48.2258 86.5322 48.2942 86.5322 48.3797V50.7042C86.5322 50.7897 86.5706 50.8752 86.6219 50.9093L88.1337 52.0716C88.185 52.1229 88.2619 52.1229 88.3131 52.0716L89.825 50.9093C89.8763 50.8581 89.9147 50.7897 89.9147 50.7042V48.3797C89.9147 48.2942 89.8763 48.2087 89.825 48.1745L88.3131 47.0123C88.2619 46.961 88.185 46.961 88.1337 47.0123L86.6219 48.1745ZM54.0525 55.6098V43.5767C54.0525 43.1323 53.8475 42.705 53.5528 42.4828L45.7244 36.4662C45.4553 36.2611 45.0837 36.2269 44.7762 36.4662L36.9478 42.4828C36.6531 42.705 36.4481 43.1152 36.4481 43.5767V55.6098C36.4481 56.0884 36.6916 56.4986 36.9606 56.7037L44.8019 62.7202C45.1094 62.9595 45.4681 62.9424 45.75 62.7202L53.5656 56.7037C53.7962 56.5328 53.9628 56.2422 54.0269 55.9003C54.0397 55.8149 54.0525 55.7123 54.0525 55.6098ZM44.5328 34.2613L44.4303 34.3467H44.5712L44.5328 34.2613ZM54.2959 56.5157L54.2447 56.396V56.5499L54.2959 56.5157Z" fill="#4E9842"/>
</svg>
