<svg width="50" height="50" viewBox="0 0 105 102" fill="none" xmlns="http://www.w3.org/2000/svg">
<path d="M104 51C104 78.5871 80.9702 101 52.5 101C24.0298 101 1 78.5871 1 51C1 23.4129 24.0298 1 52.5 1C80.9702 1 104 23.4129 104 51Z" fill="#051324" stroke="#61DAFB" stroke-width="2"/>
<path d="M71.6414 41.4578C70.9875 41.2399 70.3336 41.034 69.6797 40.8402C69.7887 40.3922 69.8855 39.9442 69.9824 39.4961C71.4719 32.2789 70.491 26.4785 67.1852 24.5652C64.0004 22.7367 58.8055 24.6379 53.55 29.2152C53.0293 29.6633 52.5207 30.1356 52.0363 30.6078C51.7094 30.293 51.3703 29.9781 51.0312 29.6754C45.5215 24.7832 39.9996 22.7246 36.6938 24.65C33.5211 26.4906 32.5766 31.952 33.9086 38.7817C34.0418 39.4598 34.1871 40.1258 34.3566 40.8039C33.5816 41.0219 32.8187 41.2641 32.1043 41.5184C25.6379 43.7586 21 47.2945 21 50.9516C21 54.7297 25.9406 58.5199 32.6613 60.8207C33.2063 61.0024 33.7512 61.184 34.3082 61.3414C34.1266 62.068 33.9691 62.7824 33.8238 63.5211C32.5523 70.2418 33.5453 75.5699 36.718 77.3985C39.9875 79.2875 45.4852 77.35 50.8375 72.6637C51.2613 72.2883 51.6852 71.9008 52.109 71.4891C52.6418 72.0098 53.1988 72.5063 53.7559 72.9906C58.9387 77.4469 64.0609 79.2512 67.2215 77.4227C70.491 75.5336 71.5566 69.8059 70.1762 62.8309C70.0672 62.2981 69.9461 61.7531 69.8129 61.1961C70.2004 61.0871 70.5758 60.966 70.9512 60.8449C77.9383 58.532 83 54.7902 83 50.9516C83 47.2824 78.2289 43.7223 71.6414 41.4578ZM55.2574 31.177C59.7621 27.2535 63.9641 25.7156 65.8773 26.8176C67.9238 27.9922 68.7109 32.7391 67.4273 38.9754C67.3426 39.3871 67.2578 39.7867 67.1488 40.1863C64.4605 39.5809 61.7359 39.1449 58.9992 38.9027C57.425 36.6504 55.7055 34.4949 53.8406 32.4727C54.3129 32.0246 54.773 31.6008 55.2574 31.177ZM41.2469 57.2363C41.8645 58.2899 42.4941 59.3434 43.1602 60.3727C41.2711 60.1668 39.3941 59.8641 37.5414 59.4645C38.0742 57.7207 38.7402 55.9164 39.5152 54.0758C40.0723 55.1414 40.6414 56.1949 41.2469 57.2363ZM37.5777 42.6688C39.3215 42.2813 41.1742 41.9664 43.0996 41.7242C42.4578 42.7293 41.8281 43.7586 41.2348 44.8C40.6414 45.8293 40.0602 46.8828 39.5152 47.9485C38.7523 46.1442 38.1105 44.3762 37.5777 42.6688ZM40.8957 51.0121C41.6949 49.341 42.5668 47.7063 43.4871 46.0957C44.4074 44.4852 45.4004 42.9231 46.4418 41.3852C48.2582 41.252 50.1109 41.1793 52 41.1793C53.8891 41.1793 55.7539 41.252 57.5582 41.3852C58.5875 42.911 59.5684 44.4731 60.5008 46.0715C61.4332 47.6699 62.3051 49.3047 63.1285 50.9637C62.3172 52.6348 61.4453 54.2817 60.5129 55.9043C59.5926 57.5149 58.6117 59.077 57.5824 60.627C55.7781 60.7602 53.9012 60.8207 52 60.8207C50.0988 60.8207 48.2582 60.7602 46.4781 60.6512C45.4246 59.1133 44.4316 57.5391 43.4992 55.9285C42.5668 54.318 41.707 52.6832 40.8957 51.0121ZM62.7652 57.2121C63.3828 56.1465 63.9641 55.0688 64.5332 53.9789C65.3082 55.7348 65.9863 57.5149 66.5797 59.3434C64.7027 59.7672 62.8016 60.0942 60.8883 60.3121C61.5422 59.2949 62.1598 58.2535 62.7652 57.2121ZM64.509 47.9485C63.9398 46.8828 63.3586 45.8172 62.7531 44.7758C62.1598 43.7465 61.5422 42.7293 60.9004 41.7242C62.85 41.9664 64.7148 42.2934 66.4586 42.693C65.9016 44.4852 65.2477 46.2289 64.509 47.9485ZM52.0242 34.3254C53.2957 35.7059 54.4945 37.159 55.6086 38.6606C53.2109 38.5516 50.8012 38.5516 48.4035 38.6606C49.5902 37.0985 50.8133 35.6453 52.0242 34.3254ZM37.9773 26.9024C40.0117 25.7156 44.5285 27.4109 49.2875 31.625C49.5902 31.8914 49.893 32.182 50.2078 32.4727C48.3309 34.4949 46.5992 36.6504 45.0129 38.9027C42.2762 39.1449 39.5637 39.5688 36.8754 40.1621C36.718 39.5445 36.5848 38.9149 36.4516 38.2852C35.3133 32.4242 36.0641 28.0043 37.9773 26.9024ZM35.0105 58.8227C34.502 58.6774 34.0055 58.5199 33.509 58.3504C30.9297 57.5391 27.9992 56.2555 25.8801 54.5723C24.657 53.7246 23.8336 52.4168 23.6035 50.9516C23.6035 48.7356 27.4301 45.902 32.952 43.9766C33.6422 43.7344 34.3445 43.5164 35.0469 43.3106C35.8703 45.9383 36.8633 48.5176 38.0137 51.0121C36.8512 53.543 35.8461 56.1586 35.0105 58.8227ZM49.1301 70.6899C47.132 72.5184 44.8191 73.9715 42.3004 74.9645C40.9562 75.6063 39.4063 75.6668 38.0258 75.1219C36.1004 74.0078 35.3012 69.7332 36.391 63.9813C36.5242 63.3031 36.6695 62.625 36.8391 61.959C39.5516 62.5402 42.2883 62.9399 45.0613 63.1457C46.6598 65.4102 48.4156 67.5777 50.2926 69.6121C49.9051 69.9875 49.5176 70.3508 49.1301 70.6899ZM52.0969 67.7473C50.8617 66.4152 49.6266 64.9379 48.4277 63.3516C49.5902 63.4 50.7891 63.4242 52 63.4242C53.2473 63.4242 54.4703 63.4 55.6812 63.3395C54.5672 64.8774 53.3684 66.3426 52.0969 67.7473ZM67.9238 71.3801C67.8148 72.8574 67.0883 74.2379 65.9258 75.1703C64.0004 76.2844 59.8953 74.8313 55.4633 71.0289C54.9547 70.593 54.4461 70.1207 53.9254 69.6363C55.7781 67.5899 57.4855 65.4223 59.0355 63.1457C61.8086 62.9156 64.5695 62.4918 67.2941 61.8742C67.4152 62.3707 67.5242 62.8672 67.6211 63.3516C68.2145 65.9672 68.3113 68.6918 67.9238 71.3801ZM70.1277 58.3625C69.7887 58.4715 69.4496 58.5805 69.0984 58.6774C68.2508 56.0375 67.2094 53.4582 66.0105 50.9516C67.173 48.4813 68.1539 45.9383 68.9773 43.3348C69.607 43.5164 70.2125 43.7102 70.7938 43.9039C76.4367 45.8414 80.3965 48.7234 80.3965 50.9274C80.3965 53.3008 76.1703 56.3645 70.1277 58.3625ZM52 56.5461C55.0637 56.5461 57.5461 54.0637 57.5461 51C57.5461 47.9363 55.0637 45.4539 52 45.4539C48.9363 45.4539 46.4539 47.9363 46.4539 51C46.4539 54.0637 48.9363 56.5461 52 56.5461Z" fill="#61DAFB"/>
</svg>
