
<svg width="70" height="70" viewBox="0 0 105 102" fill="none" xmlns="http://www.w3.org/2000/svg">
<path d="M104 51C104 78.5871 80.9702 101 52.5 101C24.0298 101 1 78.5871 1 51C1 23.4129 24.0298 1 52.5 1C80.9702 1 104 23.4129 104 51Z" fill="none" stroke="#D592B2" stroke-width="2"/>
<g clip-path="url(#clip0_34_102)">
<path d="M50.237 65.8824C50.2079 65.9551 50.1788 66.0156 50.237 65.8824ZM74.3685 55.3472C72.4201 55.3466 70.4977 55.906 68.7498 56.982C68.1782 55.541 67.5873 54.2816 67.4904 53.3371C67.3741 52.2351 67.2482 51.5812 67.3838 50.2734C67.5195 48.9656 68.1298 47.1129 68.1201 46.9797C68.1104 46.8465 67.9845 46.1805 66.7348 46.1683C65.4851 46.1562 64.4098 46.4711 64.2838 46.8828C64.0631 47.6352 63.8914 48.4087 63.7704 49.1957C63.5476 50.6125 61.271 55.6742 59.9826 58.314C59.5563 57.2847 59.1979 56.3765 59.1204 55.65C59.0041 54.548 58.8782 53.8941 59.0138 52.5863C59.1495 51.2785 59.7598 49.4258 59.7501 49.2926C59.7404 49.1594 59.6145 48.4933 58.3648 48.4812C57.1151 48.4691 56.0398 48.784 55.9138 49.1957C55.7879 49.6074 55.6523 50.5762 55.4004 51.5086C55.1485 52.441 52.1163 60.8691 51.322 63.0609C50.9151 64.175 50.5663 65.0711 50.3145 65.6765C50.2757 65.7734 50.2466 65.834 50.2273 65.8824C50.2563 65.8219 50.2757 65.7613 50.2757 65.7855C50.0626 66.3062 49.9366 66.5969 49.9366 66.5969V66.609C49.772 66.9965 49.5879 67.3476 49.5007 67.3476C49.4426 67.3476 49.3166 66.3305 49.5298 64.9379C49.9851 62.0074 51.0604 57.4543 51.0507 57.2969C51.041 57.2121 51.2541 56.425 50.3435 56.0012C49.462 55.6015 49.1423 56.2676 49.0648 56.2676C48.9873 56.2676 48.9291 56.5097 48.9291 56.5097C48.9291 56.5097 49.9076 51.3754 47.0498 51.3754C45.2673 51.3754 42.7873 53.8215 41.5666 56.0375C40.8013 56.5582 39.1448 57.6844 37.401 58.8832C36.7326 59.3433 36.0448 59.8156 35.3957 60.2637C35.3473 60.2031 35.3085 60.1426 35.2601 60.082C31.792 55.4562 25.3885 52.1867 25.6598 45.9746C25.7566 43.7101 26.3863 37.7644 37.9726 30.5473C47.4663 24.6379 55.0613 26.2605 56.3595 29.8691C58.2388 35.0156 52.3004 44.5941 42.4385 45.9746C38.6798 46.4953 36.7035 44.6789 36.2095 44.0008C35.696 43.2863 35.6185 43.25 35.4248 43.3832C35.1051 43.6012 35.3085 44.2308 35.4248 44.6062C35.7154 45.5629 36.9263 47.2582 38.9898 48.1058C40.8013 48.8445 45.2091 49.2562 50.5373 46.6769C56.5241 43.7949 61.1838 35.7664 59.8179 29.0457C58.4423 22.216 49.3845 19.9758 40.8207 23.7781C35.7154 26.0426 30.1935 29.6027 26.2216 34.2406C21.5038 39.7625 20.7482 44.5699 21.0582 46.5801C22.1626 53.7125 30.0288 58.3625 33.1773 61.8015C33.0223 61.9105 32.877 62.0074 32.7413 62.1043C31.1623 63.0851 25.1657 67.0086 23.6641 71.15C21.9688 75.8484 23.9451 79.2148 25.2432 79.675C29.2926 81.0797 33.4388 78.5488 35.667 74.3953C37.8951 70.2418 37.6238 64.8168 36.597 62.3465C36.5873 62.3101 36.5679 62.2859 36.5582 62.2496C36.9651 61.9469 37.3816 61.6441 37.7982 61.3414C38.6023 60.748 39.387 60.2031 40.0748 59.7308C39.6873 61.0387 39.4063 62.6129 39.261 64.8894C39.0866 67.5535 39.9682 71.0047 41.1113 72.3609C41.6151 72.9543 42.2254 72.9664 42.6032 72.9664C43.9401 72.9664 44.5407 71.5859 45.2091 69.939C46.0326 67.9289 46.7591 65.5918 46.7591 65.5918C46.7591 65.5918 45.8485 71.9129 48.3382 71.9129C49.2488 71.9129 50.1595 70.4476 50.5663 69.6969V69.709C50.5663 69.709 50.5857 69.6605 50.6341 69.5637C50.731 69.382 50.7795 69.273 50.7795 69.273V69.2367C51.1476 68.4496 51.9516 66.6453 53.1626 63.6664C54.732 59.8156 56.2335 55.0082 56.2335 55.0082C56.3785 56.065 56.5792 57.1087 56.8341 58.1324C57.1054 59.2828 57.677 60.5422 58.1323 61.7652C57.7641 62.3949 57.5413 62.7582 57.5413 62.7582C57.5419 62.7675 57.5454 62.7762 57.551 62.7824C57.2604 63.2668 56.931 63.7875 56.592 64.2961C55.352 66.1367 53.8795 68.2437 53.6857 68.8492C53.4532 69.5637 53.5113 70.0965 53.957 70.5082C54.2863 70.823 54.8676 70.8715 55.4779 70.8109C56.592 70.714 57.3766 70.375 57.7545 70.157C58.4513 69.8449 59.1099 69.4129 59.7113 68.8734C60.9223 67.7594 61.6585 66.1609 61.5907 64.0539C61.552 62.8914 61.2516 61.7289 60.8835 60.639C60.9901 60.4453 61.1063 60.2394 61.2129 60.0336C63.1213 56.534 64.6035 52.6953 64.6035 52.6953C64.7485 53.7521 64.9492 54.7958 65.2041 55.8195C65.4366 56.8004 65.892 57.8781 66.3085 58.9316C64.5066 60.7601 63.3926 62.8793 63.0051 64.2719C62.2882 66.8512 62.8501 68.0137 63.906 68.2801C64.3807 68.4012 65.0588 68.1226 65.5626 67.8562C66.311 67.5448 67.0168 67.0915 67.6551 66.5121C68.866 65.398 70.0382 63.8359 69.9607 61.7168C69.9316 60.7601 69.7185 59.8035 69.4376 58.8832C70.9585 58.084 72.9348 57.648 75.4535 58.0113C80.8495 58.7984 81.9054 63.0125 81.702 64.7683C81.4985 66.5242 80.3651 67.5051 79.9873 67.7957C79.6095 68.0863 79.4932 68.1953 79.5223 68.4133C79.5707 68.7281 79.7451 68.716 80.0648 68.6433C80.5104 68.5465 82.8935 67.2144 83.0001 63.957C83.1551 59.8398 79.9873 55.3109 74.3782 55.3472H74.3685ZM32.7898 72.8695C31.0073 75.3035 28.5079 76.2238 27.4326 75.4488C26.2895 74.6133 26.7448 71.0289 28.9438 68.4375C30.2807 66.8633 32.0051 65.4101 33.1482 64.514C33.4098 64.3203 33.7876 64.0297 34.2526 63.6785C34.3301 63.618 34.3688 63.5937 34.3688 63.5937C34.456 63.5211 34.5529 63.4605 34.6498 63.3879C35.4538 67.0691 34.6788 70.3144 32.7995 72.8695H32.7898ZM45.8098 61.8015C45.1898 63.7027 43.882 68.5465 43.0876 68.2922C42.4095 68.0742 41.9929 64.3808 42.952 60.748C43.4363 58.9195 44.4632 56.7398 45.0735 55.8922C46.052 54.5238 47.1273 54.0879 47.3791 54.6328C47.7182 55.3472 46.1973 60.6148 45.8098 61.8015ZM56.5629 68.2195C56.3013 68.389 56.0591 68.498 55.9429 68.4133C55.8557 68.3527 56.0495 68.1226 56.0495 68.1226C56.0495 68.1226 57.396 66.3183 57.9288 65.4949C58.2388 65.0105 58.5973 64.4414 58.9848 63.8117C58.9848 63.8722 58.9945 63.9328 58.9945 64.0055C58.9848 66.173 57.3185 67.6383 56.5629 68.2195ZM64.8554 65.8582C64.6616 65.6887 64.6907 65.1195 65.3398 63.3515C65.5916 62.6613 66.1729 61.4988 67.1804 60.3847C67.2945 60.8065 67.3566 61.2475 67.3645 61.6926C67.3548 64.4172 65.7951 65.4344 64.8554 65.8582Z" fill="#D592B2"/>
</g>
<defs>
<clipPath id="clip0_34_102">
<rect width="62" height="62" fill="white" transform="translate(21 20)"/>
</clipPath>
</defs>
</svg>
