<svg width="70" height="70" viewBox="0 0 105 102" fill="none" xmlns="http://www.w3.org/2000/svg">
<path d="M104 51C104 78.5871 80.9702 101 52.5 101C24.0298 101 1 78.5871 1 51C1 23.4129 24.0298 1 52.5 1C80.9702 1 104 23.4129 104 51Z" fill="none" stroke="#DB7533" stroke-width="2"/>
<g clip-path="url(#clip0_33_59)">
<path d="M83 29.6875V35.5C83 40.8523 69.1192 45.1875 52 45.1875C34.8808 45.1875 21 40.8523 21 35.5V29.6875C21 24.3352 34.8808 20 52 20C69.1192 20 83 24.3352 83 29.6875ZM75.4161 45.9988C78.2946 45.1027 80.9379 43.9523 83 42.5355V54.875C83 60.2273 69.1192 64.5625 52 64.5625C34.8808 64.5625 21 60.2273 21 54.875V42.5355C23.0621 43.9645 25.7054 45.1027 28.5839 45.9988C34.7978 47.9363 43.0737 49.0625 52 49.0625C60.9263 49.0625 69.2022 47.9363 75.4161 45.9988ZM21 61.9105C23.0621 63.3395 25.7054 64.4777 28.5839 65.3738C34.7978 67.3113 43.0737 68.4375 52 68.4375C60.9263 68.4375 69.2022 67.3113 75.4161 65.3738C78.2946 64.4777 80.9379 63.3273 83 61.9105V72.3125C83 77.6648 69.1192 82 52 82C34.8808 82 21 77.6648 21 72.3125V61.9105Z" fill="#DB7533"/>
</g>
<defs>
<clipPath id="clip0_33_59">
<rect width="62" height="62" fill="white" transform="translate(21 20)"/>
</clipPath>
</defs>
</svg>
