<svg width="70" height="70" viewBox="0 0 105 102" fill="none" xmlns="http://www.w3.org/2000/svg">
<path d="M104 51C104 78.5871 80.9702 101 52.5 101C24.0298 101 1 78.5871 1 51C1 23.4129 24.0298 1 52.5 1C80.9702 1 104 23.4129 104 51Z" fill="none" stroke="#0D60D6" stroke-width="2"/>
<g clip-path="url(#clip0_34_112)">
<path d="M75.2913 23.875H28.7636C24.4735 23.875 20.9998 26.9145 20.9998 30.6562C20.986 30.6562 20.9998 30.1719 20.9998 71.3438C20.9998 75.0855 24.4735 78.125 28.7498 78.125H75.2775C79.54 78.1008 82.986 75.0734 82.986 71.3438V30.6562C82.9998 26.9266 79.5538 23.8992 75.2913 23.875ZM48.2632 64.9621C48.2355 66.7422 46.5886 68.1832 44.5404 68.1832H33.0953C31.0471 68.1953 29.3726 66.7543 29.3587 64.9621V34.1801C29.3587 32.3879 31.0194 30.9227 33.0815 30.9227H44.5543C46.6025 30.9227 48.277 32.3758 48.277 34.1801V64.9621H48.2632ZM74.9869 51.3996C74.9869 53.1918 73.3261 54.657 71.2641 54.657H60.0543C58.0061 54.657 56.3315 53.2039 56.3315 51.3996V34.1922C56.3315 32.4 57.9922 30.9348 60.0404 30.9348H71.2641C73.3123 30.9348 74.9869 32.3879 74.9869 34.1922V51.3996Z" fill="#0D60D6"/>
</g>
<defs>
<clipPath id="clip0_34_112">
<rect width="62" height="62" fill="white" transform="translate(21 20)"/>
</clipPath>
</defs>
</svg>
