<svg width="70" height="70" viewBox="0 0 105 102" fill="none" xmlns="http://www.w3.org/2000/svg">
<path d="M104 51C104 78.5871 80.9702 101 52.5 101C24.0298 101 1 78.5871 1 51C1 23.4129 24.0298 1 52.5 1C80.9702 1 104 23.4129 104 51Z" fill="#051324" stroke="#21759B" stroke-width="2"/>
<g clip-path="url(#clip0_33_67)">
<path d="M28.4715 40.5133L40.7625 74.1773C32.1648 70.0117 26.2434 61.1961 26.2434 51C26.2434 47.2582 27.0426 43.7223 28.4715 40.5133ZM69.3891 49.7043C69.3891 46.5195 68.2508 44.3156 67.2699 42.5961C65.9621 40.477 64.7391 38.6727 64.7391 36.5535C64.7391 34.1801 66.5312 31.9762 69.0621 31.9762C69.1711 31.9762 69.2801 31.9883 69.4012 32.0004C64.8117 27.7984 58.7086 25.2313 52 25.2313C43.0027 25.2313 35.0832 29.8449 30.4695 36.8441C31.075 36.8684 31.6441 36.8805 32.1285 36.8805C34.8168 36.8805 38.9945 36.5535 38.9945 36.5535C40.3871 36.4687 40.5445 38.5152 39.1641 38.6727C39.1641 38.6727 37.7715 38.8301 36.2215 38.9148L45.6062 66.8148L51.2492 49.9102L47.241 38.9148C45.8484 38.8301 44.5406 38.6727 44.5406 38.6727C43.148 38.5879 43.3176 36.4687 44.698 36.5535C44.698 36.5535 48.9484 36.8805 51.4793 36.8805C54.1676 36.8805 58.3453 36.5535 58.3453 36.5535C59.7379 36.4687 59.8953 38.5152 58.5148 38.6727C58.5148 38.6727 57.1223 38.8301 55.5723 38.9148L64.8844 66.609L67.4516 58.0234C68.5414 54.4633 69.3891 51.9082 69.3891 49.7043ZM52.448 53.2523L44.7223 75.7152C47.0352 76.3934 49.4691 76.7687 52 76.7687C55.0031 76.7687 57.873 76.248 60.5492 75.3035C60.4766 75.1945 60.416 75.0734 60.3676 74.9523L52.448 53.2523ZM74.6082 38.6363C74.7172 39.4598 74.7777 40.3316 74.7777 41.2883C74.7777 43.9039 74.2934 46.8344 72.816 50.5156L64.9449 73.2691C72.6102 68.8008 77.7566 60.5059 77.7566 51C77.7566 46.5195 76.6184 42.3055 74.6082 38.6363ZM82.0312 51C82.0312 67.5656 68.5535 81.0312 52 81.0312C35.4344 81.0312 21.9688 67.5535 21.9688 51C21.9688 34.4344 35.4344 20.9688 52 20.9688C68.5535 20.9688 82.0312 34.4344 82.0312 51ZM80.6508 51C80.6508 35.1973 67.7906 22.3492 52 22.3492C36.1973 22.3492 23.3492 35.1973 23.3492 51C23.3492 66.8027 36.2094 79.6508 52 79.6508C67.8027 79.6508 80.6508 66.8027 80.6508 51Z" fill="#21759B"/>
</g>
<defs>
<clipPath id="clip0_33_67">
<rect width="62" height="62" fill="white" transform="translate(21 20)"/>
</clipPath>
</defs>
</svg>
