<svg width="70" height="70" viewBox="0 0 113 110" fill="none" xmlns="http://www.w3.org/2000/svg">
<g filter="url(#filter0_d_90_2)">
<path d="M108 51C108 78.5871 84.9702 101 56.5 101C28.0298 101 5 78.5871 5 51C5 23.4129 28.0298 1 56.5 1C84.9702 1 108 23.4129 108 51Z" fill="#051324" stroke="#F8981D" stroke-width="2"/>
<g clip-path="url(#clip0_90_2)">
<path d="M38.0796 59.9106H35.5077C35.4167 56.0721 35.1663 52.4634 34.7567 49.0819H34.7339L30.8181 59.9106H28.86L24.9675 49.0819H24.9452C24.6564 52.3285 24.4745 55.9381 24.399 59.9106H22.0547C22.2058 55.0798 22.5855 50.5509 23.1923 46.3235H26.38L30.09 56.3072H30.1129L33.8458 46.3235H36.8958C37.5637 51.2751 37.9583 55.8045 38.0796 59.9106ZM49.2335 49.8861C48.1864 54.9106 46.8048 58.5615 45.0901 60.8405C43.7542 62.5947 42.2906 63.4728 40.6968 63.4728C40.2718 63.4728 39.7475 63.3594 39.1263 63.1344V61.9228C39.4299 61.9615 39.7863 61.9835 40.1958 61.9835C40.9403 61.9835 41.5387 61.8024 41.9949 61.4394C42.5406 60.9974 42.8134 60.5004 42.8134 59.9506C42.8134 59.5736 42.6007 58.8028 42.1763 57.6356L39.3539 49.8856H41.8806L43.9063 55.6819C44.3616 56.998 44.5514 57.9169 44.4754 58.4403C45.5832 55.8242 46.357 52.9718 46.7978 49.8852H49.2335V49.8861Z" fill="#5D87A1"/>
<path d="M83.469 59.9106H76.1632V46.3235H78.6209V58.2381H83.469V59.9106ZM74.2508 60.2389L71.4259 59.0063C71.6764 58.8243 71.916 58.6274 72.1317 58.3994C73.3324 57.1522 73.9313 55.3079 73.9313 52.865C73.9313 48.37 71.9364 46.1213 67.945 46.1213C65.9879 46.1213 64.4611 46.6917 63.3693 47.833C62.1695 49.081 61.5706 50.9187 61.5706 53.3484C61.5706 55.7368 62.1014 57.4889 63.1635 58.6002C64.1351 59.607 65.5997 60.111 67.5584 60.111C68.2889 60.111 68.9594 60.0319 69.5702 59.8724L73.2479 61.7655L74.2508 60.2389ZM65.0998 57.1918C64.4775 56.3068 64.1664 54.8856 64.1664 52.9261C64.1664 49.5051 65.3418 47.7925 67.695 47.7925C68.9251 47.7925 69.8266 48.2021 70.4031 49.0195C71.0244 49.9058 71.337 51.3142 71.337 53.2465C71.337 56.6957 70.1606 58.4205 67.8089 58.4205C66.5783 58.4209 65.6768 58.0127 65.0998 57.1918ZM60.4996 56.1446C60.4996 57.2968 60.0215 58.2421 59.0663 58.9825C58.1101 59.7199 56.8279 60.0895 55.2211 60.0895C53.7182 60.0895 52.261 59.665 50.8506 58.8204L51.5111 57.6536C52.7247 58.1911 53.8236 58.4583 54.8101 58.4583C55.736 58.4583 56.4596 58.2768 56.9844 57.9169C57.5088 57.5556 57.8214 57.049 57.8214 56.4083C57.8214 55.601 57.1847 54.9111 56.0168 54.3332C54.9398 53.8103 52.7859 52.7169 52.7859 52.7169C51.6184 51.9646 51.034 51.1569 51.034 49.8263C51.034 48.725 51.4698 47.836 52.3421 47.1597C53.2153 46.4808 54.3419 46.1424 55.7231 46.1424C57.1494 46.1424 58.4461 46.4804 59.614 47.1492L59.0216 48.3164C58.0226 47.9411 57.0366 47.7534 56.064 47.7534C55.2763 47.7534 54.668 47.9209 54.245 48.257C53.8186 48.5919 53.5557 49.0203 53.5557 49.5459C53.5557 50.3492 54.2058 51.0479 55.4055 51.6372C56.4969 52.161 58.7045 53.2733 58.7045 53.2733C59.9018 54.0243 60.4996 54.8245 60.4996 56.1446Z" fill="#F8981D"/>
<path d="M86.5544 41.7726C85.0684 41.7392 83.9179 41.8714 82.9522 42.2327C82.6734 42.3311 82.2301 42.3311 82.1913 42.6427C82.3419 42.7745 82.3593 42.9872 82.49 43.1691C82.7127 43.4974 83.1008 43.939 83.4552 44.1693C83.8443 44.433 84.2349 44.694 84.6445 44.9238C85.3666 45.3189 86.1851 45.5487 86.8889 45.9424C87.2989 46.1714 87.7064 46.4676 88.1169 46.7141C88.3187 46.8455 88.4479 47.0586 88.7098 47.1408V47.0907C88.5786 46.9431 88.5413 46.7295 88.4126 46.5651L87.855 46.0897C87.3163 45.4498 86.6468 44.8913 85.9247 44.4325C85.3303 44.0704 84.0302 43.5782 83.7891 42.9727L83.7514 42.9393C84.1599 42.9055 84.6445 42.7745 85.0326 42.6739C85.6643 42.5267 86.2403 42.5601 86.8884 42.4128C87.1866 42.3469 87.4823 42.2643 87.7815 42.183V42.0349C87.4455 41.7392 87.2059 41.3463 86.8526 41.0668C85.9073 40.3448 84.8656 39.6386 83.7891 39.0476C83.2126 38.7184 82.4711 38.5066 81.8573 38.2267C81.6362 38.1278 81.2634 38.0791 81.1332 37.9147C80.8002 37.5535 80.6129 37.078 80.3713 36.6504C79.8346 35.7482 79.3133 34.7472 78.8501 33.7932C78.5151 33.1533 78.3113 32.5144 77.9028 31.9225C75.9894 29.132 73.9115 27.4419 70.7178 25.783C70.0315 25.4376 69.2149 25.2904 68.3427 25.1093L66.9496 25.0443C66.6524 24.9292 66.3548 24.6167 66.0953 24.4691C65.0357 23.8784 62.3078 22.5983 61.5285 24.2884C61.0265 25.3567 62.271 26.407 62.6984 26.9488C63.014 27.325 63.423 27.753 63.6437 28.1802C63.7744 28.4592 63.8112 28.7554 63.9419 29.0503C64.2391 29.7727 64.5169 30.5764 64.9075 31.2505C65.1113 31.5942 65.3334 31.9554 65.5939 32.2665C65.743 32.4485 66.0024 32.5289 66.059 32.8255C65.8001 33.1525 65.7797 33.6459 65.6311 34.0564C64.9632 35.9113 65.2241 38.2091 66.1709 39.5723C66.4671 39.9827 67.1738 40.8862 68.1191 40.5399C68.956 40.2446 68.7706 39.3091 69.0112 38.4886C69.0663 38.2904 69.03 38.1603 69.1414 38.0303V38.0624C69.4003 38.5216 69.6617 38.9641 69.9018 39.4246C70.4778 40.2284 71.4807 41.0659 72.3161 41.6227C72.7609 41.9198 73.1133 42.4278 73.6704 42.6093V42.5601H73.6337C73.5208 42.4128 73.3558 42.3469 73.2077 42.2327C72.8728 41.9369 72.502 41.5757 72.2421 41.2479C71.4638 40.3281 70.775 39.3099 70.1637 38.2592C69.8645 37.7495 69.6066 37.1923 69.3655 36.6834C69.2532 36.4869 69.2532 36.1908 69.0668 36.0919C68.7875 36.4527 68.3805 36.7651 68.1767 37.2072C67.8234 37.9143 67.7866 38.7839 67.6554 39.6883L67.5823 39.7199C66.9909 39.5885 66.7851 39.0476 66.5605 38.5884C66.0044 37.4221 65.9109 35.5501 66.3935 34.2045C66.5227 33.8604 67.0818 32.7767 66.8587 32.4489C66.7469 32.1347 66.3751 31.9558 66.1714 31.7084C65.9318 31.3973 65.6694 31.0036 65.5024 30.6582C65.0571 29.7393 64.833 28.7211 64.3534 27.8027C64.1292 27.3747 63.7401 26.9317 63.425 26.5375C63.0711 26.0946 62.682 25.7826 62.4022 25.2574C62.3098 25.0768 62.18 24.7815 62.3286 24.5851C62.3649 24.4532 62.4405 24.404 62.5886 24.3711C62.8291 24.1913 63.5164 24.4198 63.7575 24.5187C64.4458 24.7648 65.0213 24.9946 65.5959 25.3392C65.8558 25.5039 66.1346 25.8159 66.4681 25.8981H66.8587C67.4516 26.0124 68.1201 25.9298 68.6782 26.0783C69.6617 26.3578 70.5528 26.7678 71.352 27.2103C73.7837 28.5739 75.7891 30.5114 77.1429 32.8255C77.3651 33.2025 77.4595 33.548 77.6623 33.9413C78.0534 34.7463 78.537 35.5672 78.9251 36.3551C79.3152 37.1263 79.687 37.9138 80.2441 38.5545C80.5219 38.8991 81.6382 39.0797 82.1386 39.2603C82.5089 39.4075 83.0854 39.5384 83.4194 39.7191C84.051 40.0631 84.6802 40.4582 85.2741 40.8366C85.5699 41.0334 86.4992 41.4439 86.5544 41.7726ZM67.6161 27.5065C67.3598 27.5041 67.1043 27.5319 66.8562 27.5891V27.6221H66.892C67.0416 27.8844 67.3015 28.0663 67.4869 28.2953C67.6365 28.5585 67.7662 28.8195 67.9128 29.0823L67.9486 29.0498C68.2105 28.8859 68.3407 28.6231 68.3407 28.2289C68.2279 28.1129 68.2105 27.9995 68.1166 27.8844C68.0072 27.7201 67.7662 27.6383 67.6161 27.5065Z" fill="#5D87A1"/>
<path d="M88.3223 59.9084H88.707V58.2438H88.13L87.6593 59.3797L87.1479 58.2438H86.5923V59.9084H86.9556V58.6419H86.976L87.5117 59.9084H87.7886L88.3223 58.6419V59.9084ZM85.2236 59.9084H85.6306V58.5259H86.1634V58.2433H84.6685V58.5259H85.2226L85.2236 59.9084Z" fill="#F8981D"/>
</g>
</g>
<defs>
<filter id="filter0_d_90_2" x="0" y="0" width="113" height="110" filterUnits="userSpaceOnUse" color-interpolation-filters="sRGB">
<feFlood flood-opacity="0" result="BackgroundImageFix"/>
<feColorMatrix in="SourceAlpha" type="matrix" values="0 0 0 0 0 0 0 0 0 0 0 0 0 0 0 0 0 0 127 0" result="hardAlpha"/>
<feOffset dy="4"/>
<feGaussianBlur stdDeviation="2"/>
<feComposite in2="hardAlpha" operator="out"/>
<feColorMatrix type="matrix" values="0 0 0 0 0 0 0 0 0 0 0 0 0 0 0 0 0 0 0.25 0"/>
<feBlend mode="normal" in2="BackgroundImageFix" result="effect1_dropShadow_90_2"/>
<feBlend mode="normal" in="SourceGraphic" in2="effect1_dropShadow_90_2" result="shape"/>
</filter>
<clipPath id="clip0_90_2">
<rect width="95" height="84" fill="white" transform="translate(9)"/>
</clipPath>
</defs>
</svg>
