<svg width="253" height="320" viewBox="0 0 253 320" fill="none" xmlns="http://www.w3.org/2000/svg">
<path d="M477 76C477 121.752 464.426 166.583 440.714 205.374C417.002 244.166 383.107 275.355 342.898 295.382C302.689 315.409 257.786 323.467 213.315 318.636C168.844 313.805 126.597 296.279 91.3958 268.059C56.1946 239.84 29.4579 202.063 14.2377 159.042C-0.982565 116.021 -4.07311 69.4891 5.31882 24.7571C14.7108 -19.9749 36.2068 -61.1041 67.3531 -93.9359C98.4994 -126.768 138.041 -149.979 181.464 -160.92L193.734 -109.956C159.651 -101.368 128.615 -83.1498 104.169 -57.3806C79.7225 -31.6114 62.8505 0.670501 55.4789 35.7801C48.1073 70.8897 50.533 107.412 62.4792 141.179C74.4254 174.946 95.4107 204.596 123.04 226.745C150.669 248.894 183.828 262.65 218.733 266.442C253.638 270.234 288.881 263.909 320.441 248.19C352 232.471 378.604 207.991 397.215 177.544C415.827 147.097 425.696 111.91 425.696 76L477 76Z" fill="#575EFF" fill-opacity="0.53"/>
</svg>
