<svg width="481" height="477" viewBox="0 0 481 477" fill="none" xmlns="http://www.w3.org/2000/svg">
<path d="M237 0C282.752 0 327.583 12.5737 366.374 36.2858C405.166 59.9979 436.355 93.893 456.382 134.102C476.409 174.311 484.467 219.214 479.636 263.685C474.805 308.156 457.279 350.403 429.059 385.604C400.84 420.805 363.063 447.542 320.042 462.762C277.021 477.983 230.489 481.073 185.757 471.681C141.025 462.289 99.8959 440.793 67.0641 409.647C34.2324 378.501 11.0211 338.959 0.0797917 295.536L51.0442 283.266C59.6319 317.349 77.8502 348.385 103.619 372.831C129.389 397.278 161.671 414.149 196.78 421.521C231.89 428.893 268.412 426.467 302.179 414.521C335.946 402.575 365.596 381.589 387.745 353.96C409.894 326.331 423.65 293.172 427.442 258.267C431.234 223.362 424.909 188.119 409.19 156.559C393.471 125 368.991 98.3958 338.544 79.7845C308.097 61.1732 272.91 51.3042 237 51.3042L237 0Z" fill="#575EFF" fill-opacity="0.53"/>
</svg>
